# xmcd
#
# Track frame offsets:
#	150
#	23344
#	35628
#	62733
#	75111
#	92690
#	120947
#	142505
#	163636
#	182457
#	201345
#	216138
#	230371
#
# Disc length: 3356 seconds
#
# Revision: 3
# Processed by: cddbd v1.5.2PL0 Copyright (c) Steve Scherf et al.
# Submitted via: EasyCDDAExtractor 12.0.4.1
#
DISCID=920d1a0d
DTITLE=Steve Earle - The Hard Way (With The Dukes)
DYEAR=1990
DGENRE=Countryrock
TTITLE0=The Other Kind
TTITLE1=Promise You Anything
TTITLE2=Esmerelda's Hollywood
TTITLE3=Hopeless Romantics
TTITLE4=This Highway's Mine (Roadmaster)
TTITLE5=Billy Austin
TTITLE6=Justice In Ontario
TTITLE7=Have Mercy
TTITLE8=When The People Find Out
TTITLE9=Country Girl
TTITLE10=Regular Guy
TTITLE11=West Nashville Boogie
TTITLE12=Close Your Eyes
EXTD=YEAR: 1990 ID3G: 2
EXTT0=
EXTT1=
EXTT2=
EXTT3=
EXTT4=
EXTT5=
EXTT6=
EXTT7=
EXTT8=
EXTT9=
EXTT10=
EXTT11=
EXTT12=
PLAYORDER=
